<svg width="48" height="54" viewBox="0 0 48 54" fill="none" xmlns="http://www.w3.org/2000/svg">
<path d="M16 24.3334H10.6667V29.6667H16V24.3334ZM26.6667 24.3334H21.3333V29.6667H26.6667V24.3334ZM37.3333 24.3334H32V29.6667H37.3333V24.3334ZM42.6667 5.66671H40V0.333374H34.6667V5.66671H13.3333V0.333374H8V5.66671H5.33333C2.37333 5.66671 0.0266666 8.06671 0.0266666 11L0 48.3334C0 49.7479 0.561903 51.1044 1.5621 52.1046C2.56229 53.1048 3.91885 53.6667 5.33333 53.6667H42.6667C45.6 53.6667 48 51.2667 48 48.3334V11C48 8.06671 45.6 5.66671 42.6667 5.66671ZM42.6667 48.3334H5.33333V19H42.6667V48.3334Z" fill="black"/>
</svg>
