<svg width="18" height="18" viewBox="0 0 18 18" fill="none" xmlns="http://www.w3.org/2000/svg">
<path fill-rule="evenodd" clip-rule="evenodd" d="M17.5335 8.98806C17.5335 9.56515 17.4747 10.1414 17.3593 10.7032C17.2468 11.2516 17.0801 11.79 16.8618 12.3047C16.6485 12.8103 16.3839 13.2975 16.0747 13.7518C15.7701 14.2033 15.4192 14.6269 15.0338 15.013C14.6475 15.3975 14.2225 15.7474 13.7712 16.0532C13.3154 16.3603 12.8275 16.6245 12.3216 16.8388C11.8061 17.056 11.2665 17.2224 10.7186 17.3348C10.1561 17.4505 9.57767 17.5095 8.99975 17.5095C8.42139 17.5095 7.84303 17.4505 7.28133 17.3348C6.73257 17.2224 6.19295 17.056 5.67792 16.8388C5.17207 16.6245 4.68369 16.3603 4.22784 16.0532C3.77657 15.7474 3.35155 15.3975 2.96611 15.013C2.58027 14.6269 2.2294 14.2033 1.92439 13.7518C1.61687 13.2975 1.35184 12.8102 1.13768 12.3047C0.919305 11.79 0.752236 11.2516 0.63931 10.7032C0.525147 10.1414 0.466797 9.56515 0.466797 8.98806C0.466797 8.41053 0.525114 7.833 0.639343 7.27249C0.75227 6.72408 0.919338 6.18484 1.13771 5.67099C1.35187 5.16503 1.6169 4.67739 1.92442 4.223C2.22943 3.77115 2.5803 3.34838 2.96614 2.96183C3.35158 2.57734 3.7766 2.22828 4.22787 1.92287C4.68372 1.61453 5.1721 1.35035 5.67795 1.13563C6.19298 0.917974 6.73257 0.751146 7.28137 0.63965C7.84306 0.524819 8.42142 0.466553 8.99978 0.466553C9.57771 0.466553 10.1561 0.524819 10.7186 0.63965C11.2665 0.75118 11.8061 0.918007 12.3216 1.13563C12.8275 1.35032 13.3154 1.61453 13.7713 1.92287C14.2225 2.22828 14.6476 2.57734 15.0338 2.96183C15.4193 3.34838 15.7701 3.77115 16.0747 4.223C16.3839 4.67739 16.6485 5.16507 16.8618 5.67099C17.0801 6.18484 17.2468 6.72408 17.3593 7.27249C17.4747 7.833 17.5335 8.41053 17.5335 8.98806ZM5.89038 2.40593C3.85817 3.36421 2.34143 5.23409 1.86848 7.48763C2.0606 7.4893 5.09742 7.52759 8.59634 6.59926C7.33505 4.36153 5.98748 2.53537 5.89038 2.40593ZM9.20012 7.71983C5.44786 8.84157 1.84724 8.76085 1.71808 8.75588C1.71597 8.83409 1.71223 8.9098 1.71223 8.98805C1.71223 10.8575 2.41851 12.5618 3.57941 13.8505C3.5769 13.8467 5.5712 10.3137 9.50389 9.04381C9.59888 9.01219 9.69558 8.98388 9.7914 8.95643C9.6085 8.54286 9.40887 8.12843 9.20012 7.71983ZM13.8125 3.52647C12.5295 2.39677 10.8448 1.71152 8.99972 1.71152C8.4076 1.71152 7.83298 1.78309 7.28254 1.9154C7.3917 2.06188 8.76054 3.87517 10.0068 6.16029C12.7566 5.13091 13.7945 3.55309 13.8125 3.52647ZM10.2882 10.1622C10.2719 10.1676 10.2557 10.1723 10.2398 10.1781C5.94009 11.6748 4.53595 14.6913 4.52076 14.7242C5.75793 15.685 7.30968 16.2646 8.99977 16.2646C10.009 16.2646 10.9703 16.0594 11.8449 15.6879C11.737 15.0521 11.3136 12.8235 10.2882 10.1622ZM13.072 15.023C14.7083 13.9204 15.8705 12.1695 16.1946 10.1414C16.0446 10.0931 14.0058 9.44861 11.6536 9.82519C12.6095 12.4482 12.9978 14.5844 13.072 15.023ZM10.5678 7.24463C10.7369 7.59166 10.9007 7.94486 11.0519 8.29983C11.1057 8.42716 11.1582 8.552 11.2095 8.6768C13.7129 8.36223 16.1793 8.89149 16.2847 8.9131C16.2681 7.18803 15.6501 5.60481 14.6276 4.36531C14.6138 4.38482 13.445 6.07124 10.5678 7.24463Z" fill="white"/>
</svg>
