<svg width="18" height="18" viewBox="0 0 18 18" fill="none" xmlns="http://www.w3.org/2000/svg">
<path fill-rule="evenodd" clip-rule="evenodd" d="M9.00093 0.466553C6.68339 0.466553 6.39255 0.476686 5.48232 0.518109C4.57386 0.559709 3.95377 0.703533 3.41118 0.914557C2.84993 1.13252 2.37384 1.42407 1.89952 1.89857C1.42485 2.37288 1.13329 2.84898 0.914624 3.41005C0.703066 3.95281 0.559065 4.57308 0.518175 5.48118C0.477464 6.39141 0.466797 6.68244 0.466797 8.99997C0.466797 11.3175 0.477108 11.6075 0.518353 12.5177C0.560131 13.4262 0.703955 14.0462 0.914802 14.5888C1.13294 15.1501 1.4245 15.6262 1.89899 16.1005C2.37313 16.5752 2.84922 16.8674 3.41012 17.0854C3.95306 17.2964 4.57333 17.4402 5.4816 17.4818C6.39184 17.5233 6.68251 17.5334 8.99986 17.5334C11.3176 17.5334 11.6075 17.5233 12.5178 17.4818C13.4262 17.4402 14.047 17.2964 14.59 17.0854C15.151 16.8674 15.6264 16.5752 16.1006 16.1005C16.5752 15.6262 16.8668 15.1501 17.0855 14.589C17.2952 14.0462 17.4392 13.426 17.4819 12.5179C17.5228 11.6076 17.5335 11.3175 17.5335 8.99997C17.5335 6.68244 17.5228 6.39159 17.4819 5.48136C17.4392 4.57291 17.2952 3.95281 17.0855 3.41023C16.8668 2.84898 16.5752 2.37288 16.1006 1.89857C15.6259 1.4239 15.1512 1.13234 14.5894 0.914557C14.0454 0.703533 13.425 0.559709 12.5165 0.518109C11.6063 0.476686 11.3165 0.466553 8.99826 0.466553H9.00093ZM8.23537 2.00432C8.46258 2.00397 8.71609 2.00432 9.00089 2.00432C11.2793 2.00432 11.5494 2.0125 12.4491 2.05339C13.2811 2.09143 13.7327 2.23046 14.0335 2.34726C14.4317 2.50193 14.7156 2.68682 15.0141 2.98549C15.3128 3.28416 15.4977 3.56861 15.6527 3.96683C15.7695 4.26728 15.9087 4.71884 15.9466 5.55085C15.9875 6.45041 15.9963 6.72064 15.9963 8.998C15.9963 11.2754 15.9875 11.5456 15.9466 12.4451C15.9085 13.2772 15.7695 13.7287 15.6527 14.0292C15.498 14.4274 15.3128 14.7109 15.0141 15.0094C14.7154 15.3081 14.4319 15.493 14.0335 15.6477C13.733 15.765 13.2811 15.9037 12.4491 15.9417C11.5495 15.9826 11.2793 15.9915 9.00089 15.9915C6.72229 15.9915 6.45224 15.9826 5.55268 15.9417C4.72067 15.9033 4.26911 15.7643 3.96813 15.6475C3.5699 15.4928 3.28546 15.3079 2.98679 15.0093C2.68812 14.7106 2.50323 14.4269 2.3482 14.0284C2.2314 13.728 2.0922 13.2764 2.05433 12.4444C2.01344 11.5449 2.00527 11.2746 2.00527 8.99586C2.00527 6.71708 2.01344 6.44828 2.05433 5.54872C2.09238 4.71671 2.2314 4.26515 2.3482 3.96434C2.50287 3.56612 2.68812 3.28167 2.98679 2.983C3.28546 2.68433 3.5699 2.49944 3.96813 2.34441C4.26893 2.22708 4.72067 2.08841 5.55268 2.05019C6.33989 2.01463 6.64496 2.00397 8.23537 2.00219V2.00432ZM13.556 3.42123C12.9906 3.42123 12.532 3.87937 12.532 4.44488C12.532 5.01022 12.9906 5.4689 13.556 5.4689C14.1213 5.4689 14.58 5.01022 14.58 4.44488C14.58 3.87955 14.1213 3.42123 13.556 3.42123ZM9.00095 4.61768C6.58083 4.61768 4.61868 6.57984 4.61868 8.99995C4.61868 11.4201 6.58083 13.3813 9.00095 13.3813C11.4211 13.3813 13.3825 11.4201 13.3825 8.99995C13.3825 6.57984 11.4211 4.61768 9.00095 4.61768ZM9.00091 6.15548C10.5718 6.15548 11.8454 7.42891 11.8454 8.99995C11.8454 10.5708 10.5718 11.8444 9.00091 11.8444C7.42987 11.8444 6.15644 10.5708 6.15644 8.99995C6.15644 7.42891 7.42987 6.15548 9.00091 6.15548Z" fill="white"/>
</svg>
