<svg width="552" height="852" viewBox="0 0 552 852" fill="none" xmlns="http://www.w3.org/2000/svg">
<path d="M276.999 6.49982L276.999 37.4999C276.999 37.4999 276.999 82.6431 238.534 82.6431L64.2502 82.643C64.2502 82.643 11.7598 94.3451 11.7598 147.364C11.7598 200.384 64.2503 212.596 64.2503 212.596L458.499 212.596C458.499 212.596 540.499 203.999 541.999 277.5C543.498 351 458.498 343 458.498 343L64.2502 343C64.2502 343 11.7603 354.701 11.7603 407.721C11.7603 460.74 64.2508 472.952 64.2508 472.952L458.498 472.952C458.498 472.952 540.499 464.356 541.998 537.856C543.498 611.356 458.498 603.357 458.498 603.357L64.2505 603.357C64.2505 603.357 11.7606 615.059 11.7606 668.078C11.7606 721.097 64.2511 733.309 64.2511 733.309L238 733.309C277 733.309 277 777 277 777L277 845.5" stroke="white" stroke-width="6" stroke-linecap="round" stroke-dasharray="15 15"/>
</svg>
