<svg width="38" height="54" viewBox="0 0 38 54" fill="none" xmlns="http://www.w3.org/2000/svg">
<path d="M19.0002 25.6667C17.2321 25.6667 15.5364 24.9643 14.2861 23.7141C13.0359 22.4638 12.3335 20.7682 12.3335 19C12.3335 17.2319 13.0359 15.5362 14.2861 14.286C15.5364 13.0358 17.2321 12.3334 19.0002 12.3334C20.7683 12.3334 22.464 13.0358 23.7142 14.286C24.9645 15.5362 25.6668 17.2319 25.6668 19C25.6668 19.8755 25.4944 20.7424 25.1594 21.5513C24.8243 22.3601 24.3333 23.095 23.7142 23.7141C23.0952 24.3331 22.3602 24.8242 21.5514 25.1592C20.7426 25.4943 19.8756 25.6667 19.0002 25.6667ZM19.0002 0.333374C14.0495 0.333374 9.30152 2.30004 5.80084 5.80071C2.30016 9.30139 0.333496 14.0493 0.333496 19C0.333496 33 19.0002 53.6667 19.0002 53.6667C19.0002 53.6667 37.6668 33 37.6668 19C37.6668 14.0493 35.7002 9.30139 32.1995 5.80071C28.6988 2.30004 23.9509 0.333374 19.0002 0.333374Z" fill="black"/>
</svg>
