<svg width="58" height="56" viewBox="0 0 58 56" fill="none" xmlns="http://www.w3.org/2000/svg">
<path d="M33.7468 0.366577L30.8668 3.24658L35.1335 7.51324C35.7202 8.17991 36.0135 8.95324 36.0135 9.83325C36.0135 10.7132 35.7202 11.5399 35.1335 12.1266L25.6668 21.7532L28.3335 24.6332L38.0135 15.0066C39.4268 13.4332 40.1202 11.6999 40.1202 9.83325C40.1202 7.96658 39.4268 6.20658 38.0135 4.63324L33.7468 0.366577ZM23.1335 5.75324L20.2535 8.63325L21.8802 10.1266C22.4668 10.7132 22.7602 11.5132 22.7602 12.4999C22.7602 13.4866 22.4668 14.2866 21.8802 14.8732L20.2535 16.3666L23.1335 19.2466L24.6268 17.6199C26.0402 16.0466 26.7602 14.3399 26.7602 12.4999C26.7602 10.5799 26.0402 8.84658 24.6268 7.24658L23.1335 5.75324ZM51.0002 9.99325C49.1602 9.99325 47.4535 10.7132 45.8802 12.1266L30.8668 27.1666L33.7468 29.8332L48.6268 15.0066C49.2935 14.3399 50.0935 13.9932 51.0002 13.9932C51.9068 13.9932 52.7068 14.3399 53.3735 15.0066L55.0002 16.6332L57.7468 13.7532L56.2535 12.1266C54.6802 10.7132 52.9202 9.99325 51.0002 9.99325ZM13.6668 17.8332L0.333496 55.1666L37.6668 41.8332L13.6668 17.8332ZM45.6668 25.9932C43.8002 25.9932 42.0935 26.7132 40.4935 28.1266L36.2535 32.3666L39.1335 35.2466L43.3735 31.0066C44.0402 30.3399 44.7868 29.9932 45.6668 29.9932C46.5468 29.9932 47.3468 30.3399 48.0135 31.0066L52.3335 35.2466L55.1335 32.4999L50.8668 28.1266C49.2935 26.7132 47.5335 25.9932 45.6668 25.9932Z" fill="black"/>
</svg>
