<svg width="24" height="24" viewBox="0 0 24 24" fill="none" xmlns="http://www.w3.org/2000/svg">
<path d="M12 14C13.1046 14 14 13.1046 14 12C14 10.8954 13.1046 10 12 10C10.8954 10 10 10.8954 10 12C10 13.1046 10.8954 14 12 14Z" stroke="black" stroke-width="2" stroke-linecap="round" stroke-linejoin="round"/>
<path d="M16.2398 7.76018C16.7977 8.31741 17.2402 8.97914 17.5422 9.70753C17.8441 10.4359 17.9995 11.2167 17.9995 12.0052C17.9995 12.7937 17.8441 13.5744 17.5422 14.3028C17.2402 15.0312 16.7977 15.6929 16.2398 16.2502M7.75982 16.2402C7.20196 15.6829 6.75941 15.0212 6.45746 14.2928C6.15551 13.5644 6.0001 12.7837 6.0001 11.9952C6.0001 11.2067 6.15551 10.4259 6.45746 9.69753C6.75941 8.96915 7.20196 8.30741 7.75982 7.75018M19.0698 4.93018C20.9445 6.80545 21.9977 9.34853 21.9977 12.0002C21.9977 14.6518 20.9445 17.1949 19.0698 19.0702M4.92982 19.0702C3.05511 17.1949 2.00195 14.6518 2.00195 12.0002C2.00195 9.34853 3.05511 6.80545 4.92982 4.93018" stroke="black" stroke-width="2" stroke-linecap="round" stroke-linejoin="round"/>
</svg>
