<svg width="33" height="32" viewBox="0 0 33 32" fill="none" xmlns="http://www.w3.org/2000/svg">
<path d="M9.44786 18L4.5 22V6C4.5 5.73478 4.60536 5.48043 4.79289 5.29289C4.98043 5.10536 5.23478 5 5.5 5H21.5C21.7652 5 22.0196 5.10536 22.2071 5.29289C22.3946 5.48043 22.5 5.73478 22.5 6V17C22.5 17.2652 22.3946 17.5196 22.2071 17.7071C22.0196 17.8946 21.7652 18 21.5 18H9.44786Z" stroke="white" stroke-width="2" stroke-linecap="round" stroke-linejoin="round"/>
<path d="M10.5 18V23C10.5 23.2652 10.6054 23.5196 10.7929 23.7071C10.9804 23.8946 11.2348 24 11.5 24H23.5521L28.5 28V12C28.5 11.7348 28.3946 11.4804 28.2071 11.2929C28.0196 11.1054 27.7652 11 27.5 11H22.5" stroke="white" stroke-width="2" stroke-linecap="round" stroke-linejoin="round"/>
</svg>
