<svg width="56" height="57" viewBox="0 0 56 57" fill="none" xmlns="http://www.w3.org/2000/svg">
<path d="M28 0.5C12.5375 0.5 0 13.0375 0 28.5C0 43.9625 12.5375 56.5 28 56.5C43.4625 56.5 56 43.9625 56 28.5C56 13.0375 43.4625 0.5 28 0.5ZM14 22.8125C14.016 22.0275 14.3391 21.28 14.9 20.7304C15.4609 20.1809 16.2148 19.8731 17 19.8731C17.7852 19.8731 18.5391 20.1809 19.1 20.7304C19.6609 21.28 19.984 22.0275 20 22.8125C19.984 23.5975 19.6609 24.345 19.1 24.8946C18.5391 25.4441 17.7852 25.7519 17 25.7519C16.2148 25.7519 15.4609 25.4441 14.9 24.8946C14.3391 24.345 14.016 23.5975 14 22.8125ZM28 39.8125C22.6562 39.8125 18.275 35.6063 18 30.3375C17.9966 30.2698 18.007 30.2021 18.0306 30.1385C18.0542 30.0749 18.0905 30.0168 18.1373 29.9677C18.1841 29.9186 18.2404 29.8795 18.3027 29.8528C18.3651 29.8261 18.4322 29.8124 18.5 29.8125H21.5063C21.7688 29.8125 21.9938 30.0125 22.0125 30.275C22.25 33.3688 24.8438 35.8125 28 35.8125C31.1562 35.8125 33.7562 33.3688 33.9875 30.275C34.0062 30.0125 34.2313 29.8125 34.4938 29.8125H37.5C37.5678 29.8124 37.6349 29.8261 37.6973 29.8528C37.7596 29.8795 37.8159 29.9186 37.8627 29.9677C37.9095 30.0168 37.9458 30.0749 37.9694 30.1385C37.993 30.2021 38.0034 30.2698 38 30.3375C37.725 35.6063 33.3438 39.8125 28 39.8125ZM39 25.8125C38.215 25.7965 37.4675 25.4734 36.9179 24.9125C36.3684 24.3516 36.0606 23.5977 36.0606 22.8125C36.0606 22.0273 36.3684 21.2734 36.9179 20.7125C37.4675 20.1516 38.215 19.8285 39 19.8125C39.785 19.8285 40.5325 20.1516 41.0821 20.7125C41.6316 21.2734 41.9394 22.0273 41.9394 22.8125C41.9394 23.5977 41.6316 24.3516 41.0821 24.9125C40.5325 25.4734 39.785 25.7965 39 25.8125Z" fill="black"/>
</svg>
