<svg width="94" height="94" viewBox="0 0 94 94" fill="none" xmlns="http://www.w3.org/2000/svg">
<path d="M49.1875 34.0625L36.6875 24.6875L38.5625 22.1875L47.0609 28.5613L45.518 23.9324C45.4395 23.6975 45.418 23.4473 45.4553 23.2025C45.4925 22.9577 45.5874 22.7252 45.7322 22.5242C45.8769 22.3233 46.0674 22.1596 46.2878 22.0468C46.5082 21.9339 46.7523 21.875 47 21.875H50.125C50.9535 21.874 51.7478 21.5445 52.3336 20.9586C52.9195 20.3728 53.249 19.5785 53.25 18.75V6.25C53.249 5.4215 52.9195 4.62721 52.3336 4.04138C51.7478 3.45554 50.9535 3.12598 50.125 3.125H22C21.1715 3.12598 20.3772 3.45554 19.7914 4.04138C19.2055 4.62721 18.876 5.4215 18.875 6.25V18.75C18.8746 19.2934 19.016 19.8275 19.2852 20.2996L16.5732 21.8525C16.0336 20.9076 15.7498 19.8382 15.75 18.75V6.25C15.7519 4.59297 16.4109 3.00434 17.5826 1.83264C18.7543 0.660939 20.343 0.00186102 22 0H50.125C51.782 0.00186102 53.3707 0.660939 54.5424 1.83264C55.7141 3.00434 56.3731 4.59297 56.375 6.25V18.75C56.3731 20.407 55.7141 21.9957 54.5424 23.1674C53.3707 24.3391 51.782 24.9981 50.125 25H49.168L51.6072 32.3184C51.7125 32.6343 51.7141 32.9756 51.6118 33.2924C51.5095 33.6093 51.3087 33.8853 51.0385 34.08C50.7684 34.2747 50.4431 34.378 50.1102 34.3749C49.7772 34.3717 49.4539 34.2623 49.1875 34.0625ZM48.5625 7.8125H32.9375V10.9375H48.5625V7.8125ZM23.5625 7.8125V10.9375H29.8125V7.8125H23.5625ZM23.5625 17.1875H48.5625V14.0625H23.5625V17.1875ZM93.875 92.1875C93.875 92.6019 93.7104 92.9993 93.4174 93.2924C93.1243 93.5854 92.7269 93.75 92.3125 93.75H72V90.625H90.75V68.75H47V65.625H49.3379L55.0639 47.6316C55.5624 46.0493 56.5535 44.6676 57.8926 43.6882C59.2317 42.7088 60.8488 42.183 62.5078 42.1875H70.4375V39.0625H68.875C67.6322 39.0611 66.4408 38.5668 65.562 37.688C64.6832 36.8092 64.1889 35.6178 64.1875 34.375V29.6875H61.0625C60.81 29.6875 60.5613 29.6263 60.3376 29.5092C60.114 29.3921 59.922 29.2225 59.7782 29.015C59.6344 28.8075 59.543 28.5682 59.5119 28.3177C59.4807 28.0671 59.5108 27.8128 59.5994 27.5764L63.7725 16.4482C62.4747 15.7154 61.3951 14.6506 60.6443 13.3631C59.8936 12.0755 59.4986 10.6115 59.5 9.12109V7.8125C59.5 7.3981 59.6646 7.00067 59.9576 6.70765C60.2507 6.41462 60.6481 6.25 61.0625 6.25H78.25C80.3213 6.25233 82.3071 7.07617 83.7717 8.5408C85.2363 10.0054 86.0602 11.9912 86.0625 14.0625V25H82.9375V22.3959L79.0312 17.1875H66.8328L63.3172 26.5625H65.75C66.1644 26.5625 66.5618 26.7271 66.8549 27.0201C67.1479 27.3132 67.3125 27.7106 67.3125 28.125V29.6875H68.2279C68.7235 29.6888 69.2144 29.5919 69.6722 29.4022C70.13 29.2126 70.5457 28.934 70.8951 28.5826L73.1049 30.7924C72.4659 31.4348 71.7059 31.9441 70.8687 32.2909C70.0316 32.6376 69.134 32.8149 68.2279 32.8125H67.3125V34.375C67.313 34.7893 67.4777 35.1864 67.7707 35.4793C68.0636 35.7723 68.4607 35.937 68.875 35.9375H72C72.4144 35.9375 72.8118 36.1021 73.1049 36.3951C73.3979 36.6882 73.5625 37.0856 73.5625 37.5V42.1875H82.9375V28.125H86.0625V42.1875H92.3125C92.7269 42.1875 93.1243 42.3521 93.4174 42.6451C93.7104 42.9382 93.875 43.3356 93.875 43.75V92.1875ZM66.0203 14.0625H79.8125C80.0551 14.0625 80.2943 14.119 80.5113 14.2275C80.7282 14.3359 80.917 14.4934 81.0625 14.6875L82.9375 17.1875V14.0625C82.9361 12.8197 82.4418 11.6283 81.563 10.7495C80.6842 9.8707 79.4928 9.3764 78.25 9.375H62.6311C62.6792 10.4012 63.0254 11.3911 63.6274 12.2236C64.2293 13.0562 65.0609 13.6952 66.0203 14.0625ZM75.1 48.8729L72.7264 45.3125H62.5078C61.5125 45.3097 60.5423 45.6251 59.7388 46.2127C58.9354 46.8003 58.3409 47.6293 58.042 48.5787L52.6174 65.625H60.1488L62.6941 57.3529C62.8042 56.9954 63.0389 56.6892 63.3556 56.49C63.6723 56.2908 64.0499 56.2118 64.4199 56.2675C64.7898 56.3231 65.1275 56.5096 65.3716 56.7932C65.6157 57.0767 65.75 57.4384 65.75 57.8125V65.625H74.2188L75.1 48.8729ZM79.152 65.625L78.2521 48.5195C78.2508 48.493 78.25 48.4664 78.25 48.4402C78.25 48.4664 78.25 48.493 78.2479 48.5195L77.348 65.625H79.152ZM80.018 45.3125H76.4828L77.9883 47.5707C78.1586 47.8267 78.2497 48.1273 78.25 48.4348C78.2505 48.1272 78.3419 47.8266 78.5125 47.5707L80.018 45.3125ZM90.75 45.3125H83.7736L81.4 48.8729L82.2812 65.625H90.75V45.3125ZM70.4375 22.6562C70.4375 23.1198 70.575 23.5729 70.8325 23.9584C71.09 24.3438 71.4561 24.6442 71.8843 24.8216C72.3126 24.999 72.7839 25.0454 73.2385 24.955C73.6931 24.8645 74.1108 24.6413 74.4385 24.3135C74.7663 23.9858 74.9895 23.5681 75.08 23.1135C75.1704 22.6588 75.124 22.1876 74.9466 21.7593C74.7692 21.3311 74.4688 20.965 74.0834 20.7075C73.6979 20.45 73.2448 20.3125 72.7812 20.3125C72.1599 20.3132 71.5641 20.5603 71.1247 20.9997C70.6853 21.4391 70.4382 22.0349 70.4375 22.6562ZM0.125 92.1875V70.3125C0.126861 68.6555 0.785939 67.0668 1.95764 65.8951C3.12934 64.7234 4.71797 64.0644 6.375 64.0625H7.9375V62.5C7.93936 60.843 8.59844 59.2543 9.77014 58.0826C10.9418 56.9109 12.5305 56.2519 14.1875 56.25H15.75V35.1779L13.9303 35.4807C13.5652 35.5407 13.2334 35.7287 12.9943 36.011C12.7551 36.2933 12.6242 36.6515 12.625 37.0215V46.875C12.6222 49.3605 11.6336 51.7435 9.87604 53.501C8.11849 55.2586 5.73555 56.2472 3.25 56.25C2.8356 56.25 2.43817 56.0854 2.14515 55.7924C1.85212 55.4993 1.6875 55.1019 1.6875 54.6875V35.9375C1.68634 34.8673 1.86887 33.8049 2.22715 32.7965L5.17148 33.8436C4.93294 34.5159 4.81152 35.2241 4.8125 35.9375V52.9271C6.1533 52.5791 7.34081 51.7962 8.18904 50.701C9.03727 49.6058 9.49833 48.2602 9.5 46.875V37.0215C9.4973 35.9113 9.88991 34.8364 10.6075 33.9892C11.3251 33.1421 12.3209 32.5781 13.4164 32.3982L15.7967 32.0021C15.8677 31.2164 16.0223 30.4405 16.2578 29.6875H11.0625C10.1209 29.6854 9.1911 29.897 8.34314 30.3063C7.49518 30.7157 6.75118 31.3122 6.16719 32.0508L3.72109 30.1061C4.59692 28.9984 5.7127 28.104 6.98438 27.4902C8.25605 26.8764 9.65044 26.5592 11.0625 26.5625H17.8008C18.1778 26.0235 18.6017 25.519 19.0676 25.0547C20.0663 24.0491 21.2537 23.2506 22.5617 22.7049C23.8697 22.1593 25.2726 21.8772 26.6898 21.875H26.7689C29.6434 21.8887 32.3953 23.041 34.4219 25.0795C34.8706 25.5282 35.2795 26.0149 35.6441 26.5342C36.9385 28.3714 37.6306 30.5651 37.625 32.8125V35.2904L40.2924 37.9576C40.4375 38.1027 40.5526 38.275 40.6311 38.4645C40.7096 38.6541 40.7501 38.8573 40.7501 39.0625C40.7501 39.2677 40.7096 39.4709 40.6311 39.6605C40.5526 39.85 40.4375 40.0223 40.2924 40.1674L37.625 42.8346V46.875C37.6236 48.1178 37.1292 49.3092 36.2505 50.188C35.3717 51.0667 34.1803 51.5611 32.9375 51.5625H29.8125V56.25H34.5918C36.2581 56.2449 37.882 56.7749 39.2246 57.7619C40.5672 58.7488 41.5575 60.1407 42.0498 61.7326L47.3355 78.6467L50.29 72.7377C50.4199 72.4784 50.6195 72.2603 50.8663 72.1079C51.1131 71.9556 51.3974 71.8749 51.6875 71.875H70.4375C70.7038 71.875 70.9658 71.9431 71.1984 72.0728C71.431 72.2025 71.6266 72.3895 71.7666 72.6161C71.9066 72.8427 71.9864 73.1013 71.9984 73.3673C72.0103 73.6334 71.9541 73.8981 71.835 74.1363L66.9414 83.9258C68.1888 85.3461 68.8761 87.1722 68.875 89.0625V92.1875C68.875 92.6019 68.7104 92.9993 68.4174 93.2924C68.1243 93.5854 67.7269 93.75 67.3125 93.75C67.3125 93.75 42.0729 93.734 41.9576 93.707C40.749 93.568 39.6068 93.0812 38.6694 92.3058C37.732 91.5304 37.0397 90.4996 36.6766 89.3385L34.5 82.2656V92.1875C34.5 92.6019 34.3354 92.9993 34.0424 93.2924C33.7493 93.5854 33.3519 93.75 32.9375 93.75H1.6875C1.2731 93.75 0.875671 93.5854 0.582646 93.2924C0.28962 92.9993 0.125 92.6019 0.125 92.1875ZM65.75 89.0625C65.7486 87.8197 65.2543 86.6283 64.3755 85.7495C63.4967 84.8707 62.3053 84.3764 61.0625 84.375H57.9375V90.625H65.75V89.0625ZM49.5281 81.25H61.0625C62.2197 81.2489 63.3626 81.5065 64.4074 82.0039L67.9094 75H52.6531L49.5281 81.25ZM18.875 36.3209C22.642 35.057 28.0352 32.4873 32.3479 27.4309C32.3025 27.3832 32.258 27.335 32.2111 27.2887C30.764 25.8328 28.7988 25.0098 26.7461 25H26.6906C25.6819 25.0033 24.6837 25.2058 23.7533 25.5958C22.823 25.9857 21.9788 26.5555 21.2691 27.2725C19.7477 28.7827 18.8868 30.8343 18.875 32.9779V36.3209ZM18.875 56.25H26.6875V50C26.6875 49.5856 26.8521 49.1882 27.1451 48.8951C27.4382 48.6021 27.8356 48.4375 28.25 48.4375H32.9375C33.3518 48.437 33.7489 48.2723 34.0418 47.9793C34.3348 47.6864 34.4995 47.2893 34.5 46.875V45.3125H33.5846C32.6785 45.3149 31.7809 45.1376 30.9438 44.7909C30.1066 44.4441 29.3466 43.9348 28.7076 43.2924L30.9174 41.0826C31.2668 41.434 31.6825 41.7126 32.1403 41.9022C32.5981 42.0919 33.089 42.1888 33.5846 42.1875H34.5C34.5 41.9823 34.5404 41.7791 34.6189 41.5895C34.6974 41.4 34.8125 41.2277 34.9576 41.0826L36.9777 39.0625L34.9576 37.0424C34.8125 36.8973 34.6974 36.725 34.6189 36.5355C34.5404 36.3459 34.5 36.1427 34.5 35.9375V32.8125C34.5011 31.9279 34.3519 31.0495 34.0588 30.2148C32.6423 31.7644 31.0734 33.1674 29.3758 34.4027C29.8473 34.4712 30.2869 34.6813 30.6363 35.0053C30.9857 35.3293 31.2284 35.7518 31.3322 36.2169C31.436 36.6819 31.396 37.1675 31.2176 37.6093C31.0391 38.0511 30.7306 38.4283 30.3329 38.6907C29.9353 38.9532 29.4672 39.0886 28.9908 39.079C28.5144 39.0695 28.0522 38.9153 27.6654 38.6371C27.2786 38.3588 26.9855 37.9696 26.8249 37.5209C26.6644 37.0723 26.644 36.5855 26.7664 36.125C24.2846 37.5954 21.6352 38.7624 18.875 39.6008V56.25ZM11.0625 64.0625H20.9566C22.4877 64.0627 23.9655 64.6249 25.1096 65.6423C26.2538 66.6597 26.9847 68.0617 27.1639 69.5822L29.6395 90.625H31.375V71.875C31.375 71.5009 31.5093 71.1392 31.7534 70.8557C31.9975 70.5721 32.3352 70.3856 32.7051 70.33C33.0751 70.2743 33.4527 70.3533 33.7694 70.5525C34.0861 70.7517 34.3208 71.0579 34.4309 71.4154L39.6633 88.4193C39.8492 89.0156 40.2087 89.543 40.6957 89.934C41.1828 90.3251 41.7753 90.5621 42.3977 90.6148L42.4473 90.6176C42.5146 90.6227 42.5818 90.625 42.6502 90.625H54.8125V84.375H47C46.667 84.375 46.3427 84.2686 46.0744 84.0714C45.8062 83.8741 45.6079 83.5963 45.5086 83.2785L39.0672 62.6652C38.7717 61.7099 38.1775 60.8747 37.3718 60.2824C36.5662 59.6901 35.5917 59.3721 34.5918 59.375H14.1875C13.359 59.376 12.5647 59.7055 11.9789 60.2914C11.393 60.8772 11.0635 61.6715 11.0625 62.5V64.0625ZM3.25 90.625H26.4922L24.0602 69.9473C23.9707 69.187 23.6052 68.486 23.0332 67.9772C22.4611 67.4685 21.7222 67.1875 20.9566 67.1875H6.375C5.5465 67.1885 4.75221 67.518 4.16638 68.1039C3.58054 68.6897 3.25098 69.484 3.25 70.3125V90.625Z" fill="#5F99B1"/>
</svg>
