<svg width="91" height="95" viewBox="0 0 91 95" fill="none" xmlns="http://www.w3.org/2000/svg">
<path d="M65.2439 69.8751H83.6251V73.0001H66.4376V91.7501H83.6251V94.8751H55.3048V91.7501H63.3126V72.4032L62.4276 71.9608C59.455 70.4745 56.1554 69.7621 52.8343 69.8897C49.5132 70.0172 46.2779 70.9806 43.428 72.6905L43.2837 72.7771C43.0407 72.923 42.7626 73.0001 42.4792 73.0001H30.5001C29.6713 73.0001 28.8764 73.3293 28.2904 73.9154C27.7043 74.5014 27.3751 75.2963 27.3751 76.1251C27.3751 76.9539 27.7043 77.7488 28.2904 78.3348C28.8764 78.9209 29.6713 79.2501 30.5001 79.2501H43.0001C43.4145 79.2501 43.8119 79.4147 44.105 79.7077C44.398 80.0008 44.5626 80.3982 44.5626 80.8126C44.5626 81.227 44.398 81.6244 44.105 81.9175C43.8119 82.2105 43.4145 82.3751 43.0001 82.3751H27.3751C27.1505 82.3751 26.9285 82.3267 26.7243 82.2331L8.95713 74.095C8.41728 73.8477 7.82395 73.7401 7.23163 73.7819C6.63932 73.8238 6.06702 74.0138 5.56729 74.3345C5.06756 74.6552 4.65644 75.0964 4.37168 75.6174C4.08692 76.1385 3.93766 76.7227 3.9376 77.3165V77.6562C3.93535 78.3148 4.11769 78.9608 4.46394 79.5211C4.81019 80.0813 5.3065 80.5333 5.89658 80.8259L24.1149 89.9351C26.5026 91.1255 29.1335 91.7467 31.8015 91.7501H52.3751V94.8751H31.8015C28.6485 94.8713 25.5392 94.1373 22.7173 92.7308L4.49912 83.6216C3.38869 83.0711 2.45472 82.2205 1.80313 81.1662C1.15153 80.1119 0.808385 78.8961 0.812597 77.6567V77.3165C0.812647 76.199 1.09351 75.0995 1.62939 74.1189C2.16526 73.1383 2.93897 72.308 3.87942 71.7045C4.81988 71.1009 5.89693 70.7433 7.01163 70.6646C8.12634 70.5859 9.24295 70.7886 10.2589 71.254L24.4677 77.7622C24.2166 76.8353 24.1823 75.8631 24.3676 74.9208C24.5529 73.9786 24.9528 73.0917 25.5362 72.3289C26.1196 71.5662 26.8708 70.9481 27.7317 70.5225C28.5925 70.097 29.5398 69.8754 30.5001 69.8751H42.0495C45.3341 67.956 49.0454 66.8861 52.8476 66.7622C56.6497 66.6384 60.4227 67.4644 63.8253 69.1657L65.2439 69.8751ZM69.5626 85.5001C69.5626 86.1182 69.7459 86.7224 70.0893 87.2363C70.4326 87.7502 70.9207 88.1507 71.4917 88.3872C72.0627 88.6237 72.6911 88.6856 73.2973 88.5651C73.9035 88.4445 74.4603 88.1469 74.8973 87.7098C75.3344 87.2728 75.632 86.716 75.7526 86.1098C75.8731 85.5036 75.8113 84.8752 75.5747 84.3042C75.3382 83.7332 74.9377 83.2451 74.4238 82.9018C73.9099 82.5584 73.3057 82.3751 72.6876 82.3751C71.8591 82.3761 71.0648 82.7056 70.479 83.2915C69.8931 83.8773 69.5636 84.6716 69.5626 85.5001ZM72.6876 46.4376C73.7585 46.436 74.8176 46.2151 75.7998 45.7885C76.7821 45.3619 77.6665 44.7387 78.3985 43.9571C79.7278 42.5314 80.476 40.6603 80.4963 38.7112C80.5167 36.7621 79.8077 34.8757 78.5085 33.4226C77.2094 31.9694 75.4139 31.0544 73.4747 30.8572C71.5354 30.66 69.5925 31.1949 68.0275 32.3567C68.0188 32.3633 68.0095 32.3691 67.9999 32.3741V19.8751C67.998 18.2181 67.339 16.6294 66.1673 15.4577C64.9956 14.286 63.4069 13.627 61.7499 13.6251L49.2499 13.6335C49.2544 13.6205 49.261 13.6084 49.2694 13.5976C50.1057 12.4729 50.6239 11.1439 50.7698 9.75003C50.9157 8.35615 50.6839 6.94869 50.0987 5.67522C49.5135 4.40174 48.5965 3.30917 47.4437 2.51204C46.291 1.71492 44.945 1.24261 43.547 1.14463C42.4762 1.06536 41.4007 1.20958 40.3886 1.56813C39.3766 1.92669 38.4501 2.49175 37.6681 3.22744C36.8866 3.95943 36.2634 4.84372 35.8368 5.82578C35.4102 6.80785 35.1893 7.86688 35.1876 8.9376C35.1832 10.6186 35.7258 12.2554 36.7335 13.6009C36.7395 13.6085 36.7446 13.6169 36.7485 13.6259H24.2501C23.0211 13.6244 21.8191 13.9858 20.7947 14.6648C19.7703 15.3438 18.9692 16.3102 18.4919 17.4427L21.37 18.6599C21.6087 18.0933 22.0093 17.6098 22.5217 17.2701C23.0341 16.9304 23.6353 16.7495 24.2501 16.7501H36.7481C37.3303 16.7502 37.901 16.5877 38.3958 16.2809C38.8906 15.9742 39.29 15.5354 39.5489 15.0139C39.8078 14.4925 39.916 13.9091 39.8612 13.3295C39.8064 12.7499 39.5909 12.197 39.239 11.7333C38.7205 11.0361 38.4059 10.2086 38.3304 9.34306C38.255 8.47751 38.4215 7.60801 38.8116 6.83164C39.2016 6.05527 39.7997 5.40257 40.5392 4.94641C41.2786 4.49025 42.1303 4.24858 42.9991 4.24838C43.868 4.24818 44.7198 4.48945 45.4594 4.94526C46.1991 5.40108 46.7975 6.0535 47.1879 6.82969C47.5783 7.60588 47.7453 8.47529 47.6702 9.34087C47.5951 10.2065 47.281 11.0341 46.7628 11.7315C46.4103 12.1952 46.1943 12.748 46.1392 13.3278C46.0841 13.9076 46.192 14.4912 46.4508 15.0129C46.7096 15.5347 47.1089 15.9738 47.6039 16.2807C48.0988 16.5876 48.6697 16.7502 49.2521 16.7501H61.7501C62.5786 16.7511 63.3729 17.0806 63.9587 17.6665C64.5446 18.2523 64.8741 19.0466 64.8751 19.8751V32.3731C64.8748 32.9557 65.0374 33.5268 65.3443 34.0219C65.6513 34.517 66.0905 34.9165 66.6125 35.1754C67.1344 35.4342 67.7182 35.542 68.2982 35.4867C68.8781 35.4313 69.4311 35.215 69.8946 34.8622C70.7849 34.1948 71.8855 33.8701 72.9954 33.9474C73.7229 33.9949 74.4292 34.2114 75.0584 34.5797C75.6875 34.9481 76.222 35.4581 76.6195 36.0692C77.0169 36.6804 77.2664 37.3758 77.348 38.1002C77.4296 38.8246 77.3411 39.5581 77.0895 40.2424C76.838 40.9266 76.4303 41.5427 75.8989 42.0418C75.3675 42.5409 74.727 42.9091 74.0283 43.1173C73.3297 43.3254 72.5921 43.3677 71.8742 43.2409C71.1563 43.114 70.4779 42.8214 69.8929 42.3864C69.4292 42.0342 68.8763 41.8184 68.2965 41.7635C67.7168 41.7086 67.1332 41.8167 66.6116 42.0756C66.09 42.3345 65.651 42.734 65.3442 43.2289C65.0374 43.7239 64.8749 44.2947 64.8751 44.877V57.3751C64.8741 58.2036 64.5446 58.9979 63.9587 59.5837C63.3729 60.1696 62.5786 60.4991 61.7501 60.5001H51.6146C50.9877 60.4994 50.3867 60.25 49.9434 59.8068C49.5002 59.3635 49.2508 58.7625 49.2501 58.1356V58.103C49.2549 57.6459 49.3878 57.1993 49.6337 56.814C50.3691 55.632 50.7753 54.275 50.8104 52.8834C50.8454 51.4918 50.508 50.1161 49.833 48.8986C49.158 47.6812 48.17 46.6662 46.9711 45.9586C45.7723 45.2511 44.4062 44.8768 43.0141 44.8743C41.6221 44.8718 40.2546 45.2414 39.0533 45.9447C37.852 46.648 36.8604 47.6595 36.1811 48.8745C35.5018 50.0896 35.1595 51.4641 35.1897 52.8559C35.2198 54.2476 35.6212 55.606 36.3524 56.7905C36.6042 57.1831 36.7419 57.6379 36.7501 58.1042V58.1356C36.7494 58.7625 36.5 59.3635 36.0568 59.8068C35.6135 60.25 35.0125 60.4994 34.3856 60.5001H22.6876C22.2733 60.4996 21.8762 60.3349 21.5833 60.0419C21.2903 59.749 21.1256 59.3519 21.1251 58.9376V47.2384C21.1261 46.6119 21.3754 46.0114 21.8184 45.5684C22.2614 45.1254 22.8619 44.8761 23.4884 44.8751H23.5214C23.9785 44.8799 24.425 45.0127 24.8105 45.2585C25.9924 45.9939 27.3494 46.4002 28.741 46.4352C30.1326 46.4703 31.5083 46.1329 32.7258 45.4579C33.9433 44.7829 34.9583 43.7949 35.6658 42.5961C36.3734 41.3973 36.7477 40.0311 36.7502 38.6391C36.7527 37.247 36.3832 35.8796 35.6799 34.6783C34.9766 33.4769 33.9651 32.4853 32.7501 31.806C31.535 31.1267 30.1605 30.7844 28.7688 30.8145C27.377 30.8446 26.0186 31.246 24.8341 31.9772C24.4417 32.2289 23.9871 32.3666 23.521 32.3751H23.4884C22.8619 32.3741 22.2614 32.1248 21.8184 31.6818C21.3754 31.2388 21.1261 30.6383 21.1251 30.0118V22.0235H18.0001V30.0118C18.002 31.4668 18.5809 32.8617 19.6097 33.8905C20.6385 34.9193 22.0334 35.4982 23.4884 35.5001H23.52C24.5674 35.4921 25.5918 35.1924 26.4782 34.6345C27.189 34.1964 28.0039 33.9562 28.8387 33.9387C29.6734 33.9211 30.4977 34.1268 31.2264 34.5345C31.955 34.9422 32.5615 35.5371 32.9831 36.2578C33.4048 36.9784 33.6264 37.7986 33.6249 38.6335C33.6234 39.4684 33.3989 40.2878 32.9747 41.0069C32.5504 41.726 31.9418 42.3188 31.2117 42.7239C30.4816 43.129 29.6566 43.3318 28.8219 43.3112C27.9872 43.2906 27.1732 43.0475 26.464 42.6069C25.5829 42.0517 24.5638 41.7548 23.5224 41.7501H23.4884C22.0334 41.752 20.6385 42.3309 19.6097 43.3597C18.5809 44.3885 18.002 45.7834 18.0001 47.2384V58.9376C18.0015 60.1804 18.4958 61.3718 19.3746 62.2506C20.2533 63.1294 21.4448 63.6237 22.6876 63.6251H34.3856C35.841 63.6235 37.2364 63.0446 38.2655 62.0155C39.2946 60.9864 39.8735 59.591 39.8751 58.1356V58.1042C39.8671 57.0569 39.5673 56.0326 39.0095 55.1462C38.5714 54.4354 38.3312 53.6205 38.3136 52.7857C38.296 51.951 38.5017 51.1267 38.9094 50.3981C39.3171 49.6694 39.912 49.0629 40.6326 48.6412C41.3532 48.2195 42.1734 47.998 43.0083 47.9994C43.8433 48.0009 44.6626 48.2254 45.3818 48.6496C46.1009 49.0738 46.6937 49.6824 47.0988 50.4125C47.5039 51.1426 47.7067 51.9676 47.6861 52.8023C47.6656 53.637 47.4225 54.451 46.9819 55.1603C46.4266 56.0417 46.1297 57.0612 46.1251 58.103V58.1356C46.1267 59.591 46.7056 60.9864 47.7347 62.0155C48.7638 63.0446 50.1592 63.6235 51.6146 63.6251H61.7501C63.4071 63.6232 64.9958 62.9642 66.1675 61.7925C67.3392 60.6208 67.9982 59.0321 68.0001 57.3751L67.9933 44.8751C68.0045 44.8791 68.0149 44.885 68.0241 44.8925C69.3698 45.8999 71.0066 46.4422 72.6876 46.4376ZM5.69541 40.1876V37.0626H2.3751V40.1876H5.69541ZM8.82041 40.1876H16.4376V37.0626H8.82041V40.1876ZM83.6251 40.1876H89.8751V37.0626H83.6251V40.1876ZM73.0069 68.5421L75.1146 66.2349L71.1372 62.6021L69.0296 64.9091L73.0069 68.5421ZM9.68389 5.8583L7.56631 8.15635L15.3788 15.3562L17.4964 13.0587L9.68389 5.8583ZM7.50225 3.84775L4.99639 1.53857L2.87881 3.83662L5.38447 6.1458L7.50225 3.84775ZM80.0425 3.79248L77.8327 1.58271L68.4577 10.9577L70.6675 13.1675L80.0425 3.79248ZM17.5425 66.2925L15.3327 64.0827L10.6452 68.7702L12.855 70.98L17.5425 66.2925ZM83.0155 57.3044L86.621 58.8321L87.8403 55.9548L84.2347 54.4259L83.0155 57.3044ZM81.1097 53.1026L71.7347 49.1302L70.5155 52.0077L79.8905 55.98L81.1097 53.1026ZM15.4847 25.2954L2.98467 19.9989L1.76553 22.8763L14.2655 28.1728L15.4847 25.2954ZM86.1487 19.214L87.3507 22.0987L90.4757 20.7966L89.2737 17.9118L86.1487 19.214ZM83.0237 20.5161L70.5237 25.7243L71.7257 28.6091L84.2257 23.4009L83.0237 20.5161ZM15.4772 52.046L14.273 49.1624L6.83779 52.2679L8.04229 55.1513L15.4772 52.046ZM5.0292 56.4099L3.82471 53.5263L0.783691 54.7958L1.98818 57.6794L5.0292 56.4099ZM30.323 10.9493L25.6355 1.96494L22.8647 3.41025L27.5522 12.3946L30.323 10.9493ZM58.7673 0.474121L54.0798 10.7013L56.9204 12.004L61.6079 1.77686L58.7673 0.474121ZM61.7501 26.1251V23.7813C61.7489 22.7457 61.337 21.7528 60.6047 21.0205C59.8724 20.2882 58.8795 19.8763 57.8439 19.8751H55.5001V23.0001H57.8439C58.0511 23.0001 58.2498 23.0824 58.3963 23.2289C58.5428 23.3754 58.6251 23.5741 58.6251 23.7813V26.1251H61.7501Z" fill="#5F99B1"/>
</svg>
