<svg width="102" height="124" viewBox="0 0 102 124" fill="none" xmlns="http://www.w3.org/2000/svg">
<path d="M40.0625 81.6875H61.9375C63.8768 81.6899 65.7606 82.3354 67.2938 83.523C68.827 84.7105 69.9231 86.3729 70.4105 88.25H31.5895C32.0769 86.3729 33.173 84.7105 34.7062 83.523C36.2394 82.3354 38.1232 81.6899 40.0625 81.6875ZM53.1875 77.3125V72.9375H48.8125V77.3125H53.1875ZM68.5 101.375H33.5V105.75H68.5V101.375ZM42.25 66.375C42.2507 66.955 42.4813 67.511 42.8914 67.9211C43.3015 68.3312 43.8575 68.5619 44.4375 68.5625H57.5625C58.1427 68.5625 58.6991 68.332 59.1093 67.9218C59.5195 67.5116 59.75 66.9552 59.75 66.375C59.75 65.7948 59.5195 65.2384 59.1093 64.8282C58.6991 64.418 58.1427 64.1875 57.5625 64.1875H44.4375C43.8575 64.1882 43.3015 64.4188 42.8914 64.8289C42.4813 65.239 42.2507 65.795 42.25 66.375ZM24.75 92.625H77.25V114.5H24.75V92.625ZM29.125 107.938C29.125 108.518 29.3555 109.074 29.7657 109.484C30.1759 109.895 30.7323 110.125 31.3125 110.125H70.6875C71.2677 110.125 71.8241 109.895 72.2343 109.484C72.6445 109.074 72.875 108.518 72.875 107.938V99.1875C72.875 98.6073 72.6445 98.0509 72.2343 97.6407C71.8241 97.2305 71.2677 97 70.6875 97H31.3125C30.7323 97 30.1759 97.2305 29.7657 97.6407C29.3555 98.0509 29.125 98.6073 29.125 99.1875V107.938ZM48.8125 55.4375V59.8125H53.1875V55.4375H48.8125ZM26.9375 0.75H75.0625V5.125H31.3125V9.5H75.0625V18.25C75.0602 23.9776 73.678 29.6203 71.033 34.7005C68.3879 39.7807 64.5579 44.1489 59.867 47.4354L54.6857 51.0625H47.3143L42.133 47.4354C37.4421 44.1489 33.6121 39.7807 30.967 34.7005C28.322 29.6203 26.9398 23.9776 26.9375 18.25V0.75ZM35.7665 22.7103L31.4066 23.0723C31.8258 28.1261 33.6405 32.9641 36.6484 37.0469L40.1713 34.4531C37.6438 31.0224 36.1188 26.957 35.7665 22.7103ZM31.3125 18.1133H35.6875V13.875H31.3125V18.1133ZM24.75 40.125V35.6007C24.7488 34.761 24.5065 33.9392 24.0519 33.2332C23.5973 32.5272 22.9494 31.9666 22.1854 31.6181C22.1198 31.588 22.0555 31.5549 21.994 31.5186L7.24234 22.9619C6.58027 22.5763 6.03069 22.0241 5.64826 21.3602C5.26583 20.6964 5.06388 19.9439 5.0625 19.1778V9.5C5.06387 8.3401 5.52525 7.2281 6.34543 6.40793C7.1656 5.58775 8.2776 5.12637 9.4375 5.125H14.9062C15.7762 5.12594 16.6103 5.47195 17.2254 6.0871C17.8406 6.70225 18.1866 7.5363 18.1875 8.40625V11.6875C18.1875 12.2677 18.418 12.8241 18.8282 13.2343C19.2384 13.6445 19.7948 13.875 20.375 13.875C20.9552 13.875 21.5116 13.6445 21.9218 13.2343C22.332 12.8241 22.5625 12.2677 22.5625 11.6875V5.125C22.5611 3.9651 22.0997 2.8531 21.2796 2.03293C20.4594 1.21275 19.3474 0.751375 18.1875 0.75H7.25C5.51014 0.752026 3.84212 1.44408 2.61185 2.67435C1.38158 3.90462 0.689526 5.57264 0.6875 7.3125V21.8514C0.687873 23.0217 1.00101 24.1706 1.5945 25.1792C2.18799 26.1879 3.04025 27.0195 4.06309 27.5882L19.2498 36.0254C19.5908 36.2148 19.875 36.492 20.0728 36.8282C20.2706 37.1644 20.375 37.5474 20.375 37.9375V40.125C20.375 40.7052 20.6055 41.2616 21.0157 41.6718C21.4259 42.082 21.9823 42.3125 22.5625 42.3125C23.1427 42.3125 23.6991 42.082 24.1093 41.6718C24.5195 41.2616 24.75 40.7052 24.75 40.125ZM94.75 0.75H83.8125C82.6526 0.751375 81.5406 1.21275 80.7204 2.03293C79.9002 2.8531 79.4389 3.9651 79.4375 5.125V11.6875C79.4375 12.2677 79.668 12.8241 80.0782 13.2343C80.4884 13.6445 81.0448 13.875 81.625 13.875C82.2052 13.875 82.7616 13.6445 83.1718 13.2343C83.582 12.8241 83.8125 12.2677 83.8125 11.6875V8.40625C83.8134 7.5363 84.1594 6.70225 84.7746 6.0871C85.3897 5.47195 86.2238 5.12594 87.0938 5.125H92.5625C93.7224 5.12637 94.8344 5.58775 95.6546 6.40793C96.4748 7.2281 96.9361 8.3401 96.9375 9.5V19.1778C96.9361 19.9438 96.7342 20.6962 96.3519 21.36C95.9696 22.0238 95.4201 22.576 94.7582 22.9616L80.0068 31.5186C79.9445 31.5549 79.8802 31.588 79.8154 31.6181C79.0512 31.9665 78.4032 32.527 77.9484 33.233C77.4937 33.9391 77.2512 34.7609 77.25 35.6007V40.125C77.25 40.7052 77.4805 41.2616 77.8907 41.6718C78.3009 42.082 78.8573 42.3125 79.4375 42.3125C80.0177 42.3125 80.5741 42.082 80.9843 41.6718C81.3945 41.2616 81.625 40.7052 81.625 40.125V37.9375C81.625 37.5474 81.7294 37.1644 81.9272 36.8282C82.125 36.492 82.4092 36.2148 82.7502 36.0254L97.9372 27.5882C98.96 27.0195 99.8121 26.1878 100.406 25.1792C100.999 24.1706 101.312 23.0217 101.312 21.8514V7.3125C101.31 5.57264 100.618 3.90462 99.3881 2.67435C98.1579 1.44408 96.4899 0.752026 94.75 0.75ZM23.9144 118.875L21.7269 123.25H80.2731L78.0856 118.875H23.9144Z" fill="#8CBFD5"/>
</svg>
