<svg width="76" height="95" viewBox="0 0 76 95" fill="none" xmlns="http://www.w3.org/2000/svg">
<path d="M3.625 93.875H0.5V77.0586C0.499599 74.3587 1.37365 71.7313 2.9913 69.5696C4.60896 67.408 6.88322 65.8285 9.47363 65.0674L10.3545 68.0656C8.79902 68.5259 7.3889 69.3803 6.26094 70.5461L12.4133 75.468L10.4609 77.9076L4.48789 73.1291C3.91785 74.3606 3.62337 75.7016 3.625 77.0586V93.875ZM27.0625 57.3504V54.4955C26.4281 53.9335 25.8899 53.2716 25.4689 52.5359L21.8418 46.1883C21.1679 45.0077 20.8131 43.6719 20.8125 42.3125V34.4555C19.0937 34.2637 17.5058 33.445 16.3527 32.156C15.1995 30.8671 14.562 29.1983 14.562 27.4688C14.562 25.7393 15.1995 24.0704 16.3527 22.7815C17.5058 21.4925 19.0937 20.6738 20.8125 20.482V12.625H23.9375V16.1172L26.9217 10.894L26.1684 8.63379C25.5057 9.04254 24.9545 9.60884 24.5637 10.2822L21.8586 8.71876C22.7717 7.14664 24.2015 5.93959 25.9045 5.30313C27.0164 3.70337 28.4993 2.39673 30.2263 1.49497C31.9533 0.593208 33.873 0.123153 35.8213 0.125006H40.1787C42.1263 0.123025 44.0455 0.592671 45.7721 1.4938C47.4987 2.39493 48.9814 3.70074 50.0936 5.29962C51.5906 5.85211 52.8818 6.85091 53.7929 8.161C54.7039 9.47109 55.1907 11.0293 55.1875 12.625V20.482C56.9063 20.6738 58.4942 21.4925 59.6473 22.7815C60.8005 24.0704 61.438 25.7393 61.438 27.4688C61.438 29.1983 60.8005 30.8671 59.6473 32.156C58.4942 33.445 56.9063 34.2637 55.1875 34.4555V42.3125C55.187 43.672 54.8322 45.0079 54.1582 46.1885L50.5312 52.5361C50.1102 53.2717 49.5719 53.9335 48.9375 54.4955V57.3504L51.9342 60.7752L66.527 65.0674C69.1171 65.8288 71.391 67.4085 73.0085 69.5701C74.626 71.7316 75.5001 74.3588 75.5 77.0586H72.375C72.374 75.4058 71.9365 73.7825 71.1066 72.3531L65.6674 77.7924L63.4576 75.5826L69.0998 69.9404C68.0941 69.0778 66.9166 68.4387 65.6453 68.0654L55.7723 65.1615L59.4885 69.4086C59.6457 69.5883 59.7597 69.8017 59.8216 70.0323C59.8835 70.2629 59.8917 70.5046 59.8456 70.7389C59.7996 70.9732 59.7004 71.1939 59.5558 71.3839C59.4112 71.5739 59.2249 71.7282 59.0113 71.835L54.1588 74.2613L56.585 79.1137C56.7047 79.3531 56.7609 79.6192 56.7482 79.8866C56.7355 80.154 56.6544 80.4136 56.5125 80.6406L48.9375 92.7617V94.0059H45.8125V74.3986L43.523 72.8723L42.7088 75.3148L44.2447 94.0049H41.1303L39.6873 76.6875H36.3127L34.8697 94.0049H31.7553L33.2912 75.3148L32.477 72.8723L30.1875 74.3986V94.0049H27.0625V92.7617L19.4875 80.6406C19.3456 80.4136 19.2645 80.154 19.2518 79.8866C19.2391 79.6192 19.2953 79.3531 19.415 79.1137L21.8412 74.2613L16.9887 71.835C16.7751 71.7282 16.5888 71.5739 16.4442 71.3839C16.2996 71.1939 16.2004 70.9732 16.1543 70.7389C16.1083 70.5046 16.1165 70.2629 16.1784 70.0323C16.2403 69.8017 16.3543 69.5883 16.5115 69.4086L20.2266 65.1619L13.44 67.1578L12.5584 64.1598L24.0643 60.7762L27.0625 57.3504ZM27.0625 62.0965L20.1951 69.9449L24.6363 72.1654C25.0069 72.3508 25.2888 72.6758 25.4198 73.0689C25.5508 73.462 25.5203 73.8911 25.335 74.2617L22.602 79.7277L27.0625 86.8643V62.0961V62.0965ZM55.1875 31.2969C56.0705 31.1176 56.8644 30.6385 57.4347 29.9408C58.0049 29.2432 58.3164 28.3698 58.3164 27.4688C58.3164 26.5677 58.0049 25.6943 57.4347 24.9967C56.8644 24.299 56.0705 23.8199 55.1875 23.6406V31.2969ZM20.8125 23.6406C19.9295 23.8199 19.1356 24.299 18.5653 24.9967C17.9951 25.6943 17.6836 26.5677 17.6836 27.4688C17.6836 28.3698 17.9951 29.2432 18.5653 29.9408C19.1356 30.6385 19.9295 31.1176 20.8125 31.2969V23.6406ZM35.5475 67.0693L30.1875 61.7098V70.643L35.5475 67.0693ZM40.8279 71.0752L38 69.1904L35.1721 71.0756L36.0012 73.5625H39.9988L40.8279 71.0752ZM45.8125 61.7098L40.4525 67.0697L45.8125 70.643V61.7098ZM45.8125 56.1924C45.14 56.3779 44.4456 56.472 43.748 56.4723H32.252C31.5544 56.472 30.86 56.3779 30.1875 56.1926V57.2902L38 65.1027L45.8125 57.2902V56.1924ZM48.9375 62.0961V86.8643L53.398 79.7273L50.665 74.2613C50.4797 73.8907 50.4492 73.4616 50.5802 73.0685C50.7112 72.6754 50.993 72.3504 51.3637 72.165L55.8049 69.9445L48.9375 62.0961ZM49.0783 10.8938L52.0625 16.1162V12.625C52.0638 11.8242 51.8593 11.0365 51.4688 10.3374C51.0783 9.63834 50.5148 9.05125 49.8322 8.63243L49.0783 10.8938ZM43.0311 9.50001H46.2488L47.2014 6.64239C46.3679 5.58976 45.3082 4.7383 44.1008 4.15118L43.0311 9.50001ZM34.9156 3.29805L36.1561 9.50001H39.8439L41.0844 3.29805C40.7835 3.26691 40.4812 3.25087 40.1787 3.25001H35.8213C35.5188 3.25087 35.2165 3.26691 34.9156 3.29805ZM28.7986 6.64239L29.7512 9.50001H32.9689L31.8992 4.15118C30.6918 4.7383 29.6321 5.58976 28.7986 6.64239ZM23.9375 27.499L30.7357 32.9375H34.875V26.6875H38V32.9375H45.1654L52.0625 26.0402V22.4147L46.4682 12.625H29.5318L23.9375 22.415V27.499ZM28.182 50.9844C28.5927 51.7014 29.1852 52.2975 29.8997 52.7124C30.6143 53.1273 31.4257 53.3464 32.252 53.3477H43.748C44.5744 53.3464 45.3858 53.1273 46.1003 52.7124C46.8149 52.2975 47.4075 51.7014 47.8182 50.9844L51.4449 44.6367C51.8491 43.9287 52.0619 43.1277 52.0625 42.3125V30.4598L46.9174 35.6049C46.7723 35.75 46.6 35.8651 46.4105 35.9436C46.2209 36.0221 46.0177 36.0625 45.8125 36.0625H30.1875C29.8325 36.0626 29.4881 35.9419 29.2109 35.7201L23.9375 31.5014V42.3125C23.9379 43.1282 24.1507 43.9298 24.5551 44.6383L28.182 50.9844ZM72.375 93.875H75.5V79.8125H72.375V93.875ZM13 93.875H16.125V79.8125H13V93.875ZM63 93.875V79.8125H59.875V93.875H63ZM32.5312 27.0781C32.5312 26.5373 32.3709 26.0087 32.0704 25.559C31.77 25.1093 31.3429 24.7589 30.8433 24.5519C30.3436 24.3449 29.7938 24.2908 29.2634 24.3963C28.733 24.5018 28.2458 24.7622 27.8634 25.1446C27.481 25.527 27.2205 26.0143 27.115 26.5447C27.0095 27.0751 27.0637 27.6249 27.2706 28.1245C27.4776 28.6242 27.8281 29.0512 28.2777 29.3517C28.7274 29.6521 29.2561 29.8125 29.7969 29.8125C30.5218 29.8117 31.2169 29.5234 31.7295 29.0108C32.2421 28.4981 32.5305 27.8031 32.5312 27.0781ZM43.4688 27.0781C43.4688 27.6189 43.6291 28.1476 43.9296 28.5973C44.23 29.0469 44.6571 29.3974 45.1567 29.6044C45.6564 29.8113 46.2062 29.8655 46.7366 29.76C47.267 29.6545 47.7542 29.394 48.1366 29.0116C48.519 28.6292 48.7795 28.142 48.885 27.6116C48.9905 27.0812 48.9363 26.5314 48.7294 26.0317C48.5224 25.5321 48.1719 25.105 47.7223 24.8046C47.2726 24.5041 46.7439 24.3438 46.2031 24.3438C45.4782 24.3445 44.7831 24.6329 44.2705 25.1455C43.7579 25.6581 43.4695 26.3532 43.4688 27.0781ZM45.8125 18.875H28.625V22H45.8125V18.875ZM44.9488 40.585L43.5512 37.79C41.7122 38.7068 39.6859 39.1851 37.6311 39.1875H33.3125V42.3125H37.6311C40.171 42.3094 42.6757 41.7181 44.9488 40.585ZM23.9375 93.875V90.75H20.8125V93.875H23.9375Z" fill="#5F99B1"/>
</svg>
