<svg width="95" height="95" viewBox="0 0 95 95" fill="none" xmlns="http://www.w3.org/2000/svg">
<path d="M80.6475 1.98867C80.5177 1.72915 80.3182 1.5109 80.0714 1.35836C79.8246 1.20581 79.5401 1.12501 79.25 1.125C77.218 1.12488 75.2151 1.60765 73.4063 2.53353C71.5975 3.4594 70.0346 4.80186 68.8464 6.45028C67.6583 8.0987 66.8789 10.0059 66.5725 12.0146C66.266 14.0234 66.4414 16.0762 67.084 18.0039L67.6971 19.8432L63.8162 23.7242C63.5383 23.5797 63.2588 23.4371 62.9764 23.3004C62.6078 23.1221 62.232 22.9488 61.8611 22.7855C59.6199 21.7962 57.2784 21.0517 54.8773 20.5652C56.6356 19.1432 57.9098 17.2112 58.5247 15.035C59.1396 12.8589 59.0649 10.5457 58.3108 8.4138C57.5567 6.2819 56.1604 4.43613 54.3141 3.13056C52.4677 1.82499 50.2621 1.1238 48.0007 1.12351C45.7394 1.12322 43.5336 1.82385 41.6869 3.12895C39.8402 4.43405 38.4434 6.27946 37.6888 8.41116C36.9342 10.5429 36.8588 12.8561 37.4732 15.0323C38.0875 17.2086 39.3613 19.141 41.1191 20.5635C38.0073 21.1931 34.9995 22.2573 32.1842 23.725L26.7729 18.3125C26.1862 17.7272 25.3913 17.3984 24.5625 17.3984C23.7337 17.3984 22.9388 17.7272 22.3521 18.3125L18.3125 22.3521C18.0221 22.6424 17.7918 22.9869 17.6346 23.3662C17.4775 23.7455 17.3966 24.152 17.3966 24.5625C17.3966 24.973 17.4775 25.3795 17.6346 25.7588C17.7918 26.1381 18.0221 26.4826 18.3125 26.7729L20.7904 29.25H10.5C8.47001 29.2439 6.49382 29.9025 4.87324 31.125L6.75 33.625C7.82992 32.8099 9.14702 32.3709 10.5 32.375H21.4375C23.0951 32.375 24.6848 33.0335 25.8569 34.2056C27.029 35.3777 27.6875 36.9674 27.6875 38.625C27.6875 40.2826 27.029 41.8723 25.8569 43.0444C24.6848 44.2165 23.0951 44.875 21.4375 44.875H10.5C9.46238 44.8744 8.44122 44.6157 7.52852 44.1221C6.61583 43.6285 5.84029 42.9155 5.2718 42.0475C4.7033 41.1795 4.35971 40.1837 4.272 39.1498C4.18428 38.1159 4.3552 37.0764 4.76934 36.125L1.90625 34.875C1.02526 36.8966 0.885142 39.1641 1.51052 41.2789C2.1359 43.3936 3.48675 45.2202 5.32559 46.4375C3.88325 47.3916 2.73308 48.7262 2.0024 50.2935C1.27173 51.8609 0.989066 53.5999 1.1857 55.3181C1.38234 57.0362 2.05061 58.6663 3.11652 60.0281C4.18243 61.3899 5.6044 62.4301 7.225 63.0336C5.98024 64.1955 5.0758 65.6749 4.60895 67.3124C4.14211 68.95 4.13051 70.6839 4.57542 72.3275C5.02034 73.9712 5.90492 75.4624 7.13402 76.6409C8.36313 77.8194 9.89027 78.6406 11.5512 79.016C10.2779 80.3409 9.42236 82.011 9.09109 83.8184C8.75982 85.6259 8.96744 87.4908 9.68809 89.1811C10.4087 90.8715 11.6106 92.3125 13.1441 93.3249C14.6776 94.3373 16.475 94.8764 18.3125 94.875H74.5625C79.9478 94.8689 85.1108 92.7269 88.9189 88.9189C92.7269 85.1109 94.8689 79.9478 94.875 74.5625V65.1875H91.75V74.5625C91.7448 79.1193 89.9323 83.488 86.7102 86.7102C83.488 89.9324 79.1193 91.7448 74.5625 91.75H34.6678C35.9078 90.3696 36.7087 88.6513 36.9686 86.8141C40.5215 88.0185 44.2484 88.6303 48 88.625C66.9545 88.625 82.375 73.2045 82.375 54.25C82.3993 45.6692 79.1896 37.3942 73.3853 31.0742L76.7728 27.6875C77.3579 27.101 77.6864 26.3065 77.6864 25.4781C77.6864 24.6498 77.3579 23.8552 76.7728 23.2688L72.7316 19.2277C72.4368 18.9328 72.0858 18.7001 71.6993 18.5435C71.3128 18.3869 70.8988 18.3095 70.4818 18.316L70.0486 17.016C69.588 15.6337 69.4446 14.1654 69.6292 12.7201C69.8139 11.2748 70.3217 9.88961 71.115 8.66747C71.9084 7.44534 72.9668 6.41762 74.2118 5.66064C75.4568 4.90366 76.8563 4.43687 78.3064 4.29492L91.75 31.1814V62.0625H94.875V30.8125C94.875 30.5699 94.8185 30.3306 94.71 30.1137L80.6475 1.98867ZM40.1875 12.0625C40.1875 10.7308 40.5279 9.42122 41.1764 8.25809C41.8249 7.09496 42.7599 6.1169 43.8927 5.41679C45.0255 4.71668 46.3185 4.31775 47.6488 4.2579C48.9792 4.19804 50.3027 4.47924 51.4939 5.07479C52.685 5.67034 53.7041 6.56047 54.4544 7.66067C55.2047 8.76086 55.6613 10.0346 55.7809 11.3609C55.9005 12.6872 55.6791 14.0221 55.1377 15.2387C54.5963 16.4554 53.7528 17.5135 52.6875 18.3125V16.75C53.1019 16.75 53.4993 16.5854 53.7923 16.2924C54.0854 15.9993 54.25 15.6019 54.25 15.1875V8.9375C54.25 8.5231 54.0854 8.12567 53.7923 7.83265C53.4993 7.53962 53.1019 7.375 52.6875 7.375H43.3125C42.8981 7.375 42.5007 7.53962 42.2076 7.83265C41.9146 8.12567 41.75 8.5231 41.75 8.9375V15.1875C41.75 15.6019 41.9146 15.9993 42.2076 16.2924C42.5007 16.5854 42.8981 16.75 43.3125 16.75V18.3125C42.3432 17.5838 41.5565 16.64 41.0142 15.5554C40.4719 14.4708 40.1889 13.2751 40.1875 12.0625ZM44.875 13.625V10.5H51.125V13.625H44.875ZM49.5625 16.75V19.9113C48.5252 19.8652 47.4727 19.8652 46.4375 19.9113V16.75H49.5625ZM24.8244 28.8645L20.5229 24.5625L24.5625 20.5229L29.3885 25.3486C27.7717 26.3911 26.245 27.5672 24.8244 28.8645ZM30.8125 38.625C30.8125 37.8626 30.7193 37.1031 30.535 36.3633C30.8109 36.0945 31.0936 35.8303 31.3818 35.574C31.3975 35.5604 31.4127 35.5461 31.4275 35.5318C35.9969 31.4806 41.8933 29.2456 48 29.25C49.5754 29.2496 51.1474 29.3967 52.6953 29.6895C58.4074 30.7841 63.5595 33.8351 67.2653 38.3176C70.9711 42.8001 72.9989 48.434 73 54.25C72.9991 58.6578 71.8331 62.9871 69.6201 66.7992C67.4071 70.6112 64.2258 73.7705 60.3984 75.957C56.5711 78.1434 52.2338 79.2793 47.8261 79.2495C43.4184 79.2197 39.0968 78.0253 35.2994 75.7873C35.0805 75.6596 34.8658 75.5283 34.6529 75.392C33.6336 74.7467 32.6622 74.0287 31.7463 73.2436C32.1928 72.087 32.4053 70.8534 32.3715 69.6141C32.3377 68.3748 32.0582 67.1546 31.5493 66.0241C31.0403 64.8937 30.3121 63.8755 29.4067 63.0285C28.5013 62.1816 27.4369 61.5229 26.275 61.0904C27.2569 60.1747 28.0303 59.0583 28.5425 57.8171C29.0547 56.576 29.2937 55.2391 29.2435 53.8974C29.1932 52.5556 28.8547 51.2404 28.251 50.0411C27.6474 48.8417 26.7926 47.7864 25.7449 46.9467C27.2706 46.1565 28.5499 44.9626 29.4436 43.4952C30.3372 42.0278 30.8107 40.3431 30.8125 38.625ZM4.25 54.25C4.25186 52.593 4.91094 51.0043 6.08264 49.8326C7.25434 48.6609 8.84297 48.0019 10.5 48H19.875C21.5326 48 23.1223 48.6585 24.2944 49.8306C25.4665 51.0027 26.125 52.5924 26.125 54.25C26.125 55.9076 25.4665 57.4973 24.2944 58.6694C23.1223 59.8415 21.5326 60.5 19.875 60.5H10.5C8.84297 60.4981 7.25434 59.8391 6.08264 58.6674C4.91094 57.4957 4.25186 55.907 4.25 54.25ZM7.375 69.875C7.37686 68.218 8.03594 66.6293 9.20764 65.4576C10.3793 64.2859 11.968 63.6269 13.625 63.625H23C24.6576 63.625 26.2473 64.2835 27.4194 65.4556C28.5915 66.6277 29.25 68.2174 29.25 69.875C29.25 71.5326 28.5915 73.1223 27.4194 74.2944C26.2473 75.4665 24.6576 76.125 23 76.125H13.625C11.968 76.1231 10.3793 75.4641 9.20764 74.2924C8.03594 73.1207 7.37686 71.532 7.375 69.875ZM27.6875 91.75H18.3125C16.6549 91.75 15.0652 91.0915 13.8931 89.9194C12.721 88.7473 12.0625 87.1576 12.0625 85.5C12.0625 83.8424 12.721 82.2527 13.8931 81.0806C15.0652 79.9085 16.6549 79.25 18.3125 79.25H27.6875C29.3451 79.25 30.9348 79.9085 32.1069 81.0806C33.279 82.2527 33.9375 83.8424 33.9375 85.5C33.9375 87.1576 33.279 88.7473 32.1069 89.9194C30.9348 91.0915 29.3451 91.75 27.6875 91.75ZM79.25 54.25C79.25 71.4812 65.2312 85.5 48 85.5C44.1829 85.5068 40.3973 84.81 36.8328 83.4445C36.4278 81.6507 35.5041 80.0157 34.1766 78.7432C38.3943 81.1252 43.1562 82.3762 48 82.375C63.5078 82.375 76.125 69.7578 76.125 54.25C76.124 47.7062 73.8422 41.3674 69.6722 36.3243C65.5022 31.2813 59.7049 27.8494 53.2777 26.6193C51.5378 26.2902 49.7708 26.1247 48 26.125C41.1295 26.1201 34.4957 28.6349 29.3549 33.193C29.3479 33.199 29.3385 33.208 29.3311 33.2146C29.3191 33.2252 29.3066 33.2363 29.2949 33.2475C29.2832 33.2586 29.2768 33.2633 29.2662 33.2736C29.2381 33.2986 29.2105 33.3244 29.1826 33.3496C28.5907 32.4836 27.8589 31.7221 27.017 31.0963C28.7437 29.529 30.64 28.1593 32.6707 27.0129C36.4688 24.8631 40.6797 23.5435 45.0254 23.1412C47.0053 22.9535 48.9986 22.9535 50.9785 23.1412C54.3 23.4519 57.5494 24.2972 60.6012 25.6445C60.94 25.7938 61.2818 25.9516 61.6144 26.1133C62.1959 26.3955 62.7723 26.698 63.3303 27.0141C65.7165 28.3603 67.9158 30.0136 69.8721 31.9318C69.9475 32.0053 70.0209 32.0789 70.0965 32.1545C73.0077 35.0491 75.3157 38.4924 76.8869 42.2852C78.4582 46.0779 79.2614 50.1447 79.25 54.25ZM70.5221 21.4375L74.5625 25.4771L71.175 28.8648C69.7542 27.5676 68.2273 26.3917 66.6103 25.3492L70.5221 21.4375ZM6.91738 4.70762L4.70762 6.91738L1.58262 3.79238L3.79238 1.58262L6.91738 4.70762ZM17.2076 19.4174L6.27012 8.47988L8.47988 6.27012L19.4174 17.2076L17.2076 19.4174ZM23.0371 15.5264L19.9121 1.46387L22.9629 0.786133L26.0879 14.8486L23.0371 15.5264ZM1.46387 18.3496L15.5264 21.4746L14.8486 24.5254L0.786133 21.4004L1.46387 18.3496Z" fill="#5F99B1"/>
</svg>
