<svg width="94" height="94" viewBox="0 0 94 94" fill="none" xmlns="http://www.w3.org/2000/svg">
<path d="M13.2244 12.9518L15.1055 15.4479C12.3339 17.5396 10.4338 20.5825 9.77092 23.9909C9.10803 27.3994 9.72917 30.9326 11.5148 33.9107C13.3004 36.8887 16.1244 39.1011 19.4432 40.1222C22.762 41.1432 26.3412 40.9007 29.492 39.4414L30.8062 42.2766C28.5254 43.3307 26.0432 43.8781 23.5305 43.8809C19.9282 43.8723 16.4195 42.7326 13.4998 40.6226C10.5801 38.5127 8.39672 35.5391 7.25793 32.1215C6.11915 28.7039 6.08243 25.015 7.15298 21.5754C8.22352 18.1359 10.3473 15.1194 13.2244 12.9518ZM40.2824 22.7064C39.2266 18.272 36.4524 14.4387 32.5703 12.0496C28.6881 9.6606 24.0159 8.91159 19.5814 9.96738C18.4592 10.2344 17.3666 10.6131 16.3197 11.0977L17.633 13.9336C18.4907 13.5368 19.3859 13.2268 20.3053 13.0082C23.4483 12.261 26.7527 12.6187 29.6631 14.0209C32.5735 15.4231 34.9125 17.7846 36.2869 20.7082C37.6613 23.6319 37.9873 26.9396 37.2102 30.0753C36.4331 33.211 34.6002 35.9837 32.0195 37.9271L33.8998 40.4232C36.5716 38.411 38.5985 35.6631 39.7322 32.5163C40.8659 29.3695 41.0571 25.9603 40.2824 22.7064ZM25.125 37.625V34.5C26.3682 34.5 27.5605 34.0061 28.4396 33.1271C29.3186 32.248 29.8125 31.0557 29.8125 29.8125C29.8125 28.5693 29.3186 27.377 28.4396 26.4979C27.5605 25.6189 26.3682 25.125 25.125 25.125H22C21.5856 25.125 21.1882 24.9604 20.8951 24.6674C20.6021 24.3743 20.4375 23.9769 20.4375 23.5625C20.4375 23.1481 20.6021 22.7507 20.8951 22.4576C21.1882 22.1646 21.5856 22 22 22H28.25V18.875H25.125V15.75H22V18.875C20.7568 18.875 19.5645 19.3689 18.6854 20.2479C17.8064 21.127 17.3125 22.3193 17.3125 23.5625C17.3125 24.8057 17.8064 25.998 18.6854 26.8771C19.5645 27.7561 20.7568 28.25 22 28.25H25.125C25.5394 28.25 25.9368 28.4146 26.2299 28.7076C26.5229 29.0007 26.6875 29.3981 26.6875 29.8125C26.6875 30.2269 26.5229 30.6243 26.2299 30.9174C25.9368 31.2104 25.5394 31.375 25.125 31.375H18.875V34.5H22V37.625H25.125ZM12.625 28.25H15.75V25.125H12.625V28.25ZM34.5 25.125H31.375V28.25H34.5V25.125ZM0.125 92.3125V70.4375C0.125 70.0231 0.28962 69.6257 0.582646 69.3326C0.875671 69.0396 1.2731 68.875 1.6875 68.875H6.375V61.0625H1.6875C1.2731 61.0625 0.875671 60.8979 0.582646 60.6049C0.28962 60.3118 0.125 59.9144 0.125 59.5V48.5625C0.125 48.1481 0.28962 47.7507 0.582646 47.4576C0.875671 47.1646 1.2731 47 1.6875 47H11.8797C9.08947 45.3958 6.65958 43.2341 4.74149 40.6496C2.8234 38.0651 1.45822 35.1132 0.731037 31.9779C0.00385869 28.8427 -0.0697273 25.5912 0.514866 22.4262C1.09946 19.2613 2.3297 16.2507 4.12891 13.582L6.71836 15.3314C3.7961 19.6621 2.65268 24.9513 3.5252 30.1024C4.39773 35.2534 7.21925 39.871 11.4047 42.9977C15.5902 46.1244 20.8184 47.5203 26.0054 46.8959C31.1923 46.2716 35.94 43.6749 39.2639 39.6443C42.5879 35.6137 44.233 30.4584 43.8583 25.2475C43.4836 20.0366 41.1177 15.1697 37.2512 11.6562C33.3848 8.14272 28.3144 6.25207 23.0915 6.37633C17.8686 6.50059 12.8938 8.63022 9.19883 12.3236L6.98945 10.1146C9.34925 7.75383 12.1861 5.92434 15.3102 4.74866C18.4343 3.57298 21.7735 3.07823 25.1043 3.29753C28.4351 3.51683 31.6806 4.44512 34.6235 6.02026C37.5665 7.59539 40.139 9.78104 42.1689 12.4309C44.1988 15.0807 45.6393 18.1336 46.3938 21.3852C47.1483 24.6368 47.1995 28.012 46.544 31.285C45.8885 34.558 44.5413 37.6532 42.5928 40.3634C40.6442 43.0736 38.1391 45.3363 35.2453 47H40.75C41.1644 47 41.5618 47.1646 41.8549 47.4576C42.1479 47.7507 42.3125 48.1481 42.3125 48.5625V57.9375H47C47.4144 57.9375 47.8118 58.1021 48.1049 58.3951C48.3979 58.6882 48.5625 59.0856 48.5625 59.5V70.4375C48.5625 70.8519 48.3979 71.2493 48.1049 71.5424C47.8118 71.8354 47.4144 72 47 72H7.9375C7.80565 71.9995 7.6744 71.9823 7.54688 71.9488V72H3.25V79.8125H7.9375V75.125H11.0625V79.8125H15.75V75.125H18.875V79.8125H23.5625V75.125H26.6875V79.8125H31.375V75.125H34.5V79.8125H39.1875V74.5391H42.3125V92.3125C42.3125 92.7269 42.1479 93.1243 41.8549 93.4174C41.5618 93.7104 41.1644 93.875 40.75 93.875H1.6875C1.2731 93.875 0.875671 93.7104 0.582646 93.4174C0.28962 93.1243 0.125 92.7269 0.125 92.3125ZM9.5 61.0625V68.875H14.1875V64.1875H17.3125V68.875H22V64.1875H25.125V68.875H29.8125V64.1875H32.9375V68.875H37.625V64.1875H40.75V68.875H45.4375V61.0625H9.5ZM7.9375 57.9375V53.25H11.0625V57.9375H15.75V53.25H18.875V57.9375H23.5625V53.25H26.6875V57.9375H31.375V53.25H34.5V57.9375H39.1875V50.125H3.25V57.9375H7.9375ZM3.25 90.75H7.9375V86.0625H11.0625V90.75H15.75V86.0625H18.875V90.75H23.5625V86.0625H26.6875V90.75H31.375V86.0625H34.5V90.75H39.1875V82.9375H3.25V90.75ZM93.875 37.625V48.5625C93.875 48.9769 93.7104 49.3743 93.4174 49.6674C93.1243 49.9604 92.7269 50.125 92.3125 50.125H87.625V57.9375H92.3125C92.7269 57.9375 93.1243 58.1021 93.4174 58.3951C93.7104 58.6882 93.875 59.0856 93.875 59.5V70.4375C93.875 70.8519 93.7104 71.2493 93.4174 71.5424C93.1243 71.8354 92.7269 72 92.3125 72H54.8125V79.8125H59.5V75.125H62.625V79.8125H67.3125V75.125H70.4375V79.8125H75.125V75.125H78.25V79.8125H82.9375V75.125H86.0625V79.8125H90.75V74.3438H93.875V81.375C93.875 81.7894 93.7104 82.1868 93.4174 82.4799C93.1243 82.7729 92.7269 82.9375 92.3125 82.9375H89.1875V92.3125C89.1875 92.7269 89.0229 93.1243 88.7299 93.4174C88.4368 93.7104 88.0394 93.875 87.625 93.875H48.5625C48.1481 93.875 47.7507 93.7104 47.4576 93.4174C47.1646 93.1243 47 92.7269 47 92.3125V81.375C47 80.9606 47.1646 80.5632 47.4576 80.2701C47.7507 79.9771 48.1481 79.8125 48.5625 79.8125H51.6875V59.5C51.6875 59.0856 51.8521 58.6882 52.1451 58.3951C52.4382 58.1021 52.8356 57.9375 53.25 57.9375V53.25H56.375V57.9375H61.0625V53.25H64.1875V57.9375H68.875V53.25H72V57.9375H76.6875V53.25H79.8125V57.9375H84.5V50.125H48.5625V55.5938H45.4375V48.5625C45.4375 48.1481 45.6021 47.7507 45.8951 47.4576C46.1882 47.1646 46.5856 47 47 47H51.6875V39.1875H47V36.0625H53.25V31.375H56.375V36.0625H61.0625V31.375H64.1875V36.0625H68.875V31.375H72V36.0625H76.6875V31.375H79.8125V36.0625H84.5V28.25H51.1016V25.125H86.0625C86.4769 25.125 86.8743 25.2896 87.1674 25.5826C87.4604 25.8757 87.625 26.2731 87.625 26.6875V36.0625H92.3125C92.7269 36.0625 93.1243 36.2271 93.4174 36.5201C93.7104 36.8132 93.875 37.2106 93.875 37.625ZM50.125 82.9375V90.75H54.8125V86.0625H57.9375V90.75H62.625V86.0625H65.75V90.75H70.4375V86.0625H73.5625V90.75H78.25V86.0625H81.375V90.75H86.0625V82.9375H50.125ZM54.8125 61.0625V68.875H59.5V64.1875H62.625V68.875H67.3125V64.1875H70.4375V68.875H75.125V64.1875H78.25V68.875H82.9375V64.1875H86.0625V68.875H90.75V61.0625H54.8125ZM90.75 39.1875H54.8125V47H59.5V42.3125H62.625V47H67.3125V42.3125H70.4375V47H75.125V42.3125H78.25V47H82.9375V42.3125H86.0625V47H90.75V39.1875ZM48.5625 0.125V4.8125H45.4375V7.9375H48.5625V12.625H51.6875V7.9375H54.8125V4.8125H51.6875V0.125H48.5625ZM65.75 9.5V14.1875H62.625V17.3125H65.75V22H68.875V17.3125H72V14.1875H68.875V9.5H65.75Z" fill="#5F99B1"/>
</svg>
