<svg width="208" height="168" viewBox="0 0 208 168" fill="none" xmlns="http://www.w3.org/2000/svg">
<path d="M104 84.0003L26.416 53.0083L31.2 167.2H10.4L15.392 48.5363L0 42.4003L104 0.800293L208 42.4003L104 84.0003ZM104 32.0003C98.28 32.0003 93.6 34.2883 93.6 37.2003C93.6 40.1123 98.28 42.4003 104 42.4003C109.72 42.4003 114.4 40.1123 114.4 37.2003C114.4 34.2883 109.72 32.0003 104 32.0003ZM104 94.4003L161.928 71.2083C169.312 80.9843 174.408 92.7363 176.072 105.528C172.952 105.112 169.728 104.8 166.4 104.8C139.88 104.8 116.688 119.048 104 140.264C97.5598 129.456 88.4233 120.506 77.485 114.289C66.5466 108.072 54.1815 104.803 41.6 104.8C38.272 104.8 35.048 105.112 31.928 105.528C33.592 92.7363 38.688 80.9843 46.072 71.2083L104 94.4003Z" fill="url(#paint0_linear)"/>
<defs>
<linearGradient id="paint0_linear" x1="104" y1="167" x2="104" y2="-21" gradientUnits="userSpaceOnUse">
<stop stop-color="#2AF598"/>
<stop offset="1" stop-color="#009EFD"/>
</linearGradient>
</defs>
</svg>
